<?xml version="1.0" encoding="utf-8"?>
<!-- Generator: Adobe Illustrator 27.0.0, SVG Export Plug-In . SVG Version: 6.00 Build 0)  -->
<svg version="1.1" id="Capa_1" xmlns="http://www.w3.org/2000/svg" xmlns:xlink="http://www.w3.org/1999/xlink" x="0px" y="0px"
	 viewBox="0 0 43.9 43.6" style="enable-background:new 0 0 43.9 43.6;" xml:space="preserve">
<style type="text/css">
	.st0{fill:#35FF68;}
	.st1{fill:#E1E1E1;}
	.st2{fill:#F8F8F8;}
	.st3{fill:#FFFFFF;}
	.st4{fill:#D1D1D1;}
</style>
<polygon class="st0" points="17.8,11.6 20,14 22.4,14.9 "/>
<path class="st1" d="M22.4,14.9l-3.2,0.5l-4.6-0.9c-0.9-4.2-2.6-8.1-5-11.7l0,0C13,7.7,17.4,11.8,22.4,14.9z"/>
<path class="st1" d="M19,30.9c-3.6,2.8-6.8,6.1-9.4,9.8l0,0c2.7-4,4.5-8.5,5.3-13.3c1-0.5,2-1,3.1-1.6L19,30.9L19,30.9L19,30.9z"/>
<path class="st1" d="M30.5,24.5L26,22.1l1.1-2.7l3.5-0.4c3.8,1.4,7.7,2.4,11.7,2.8C38.3,22.2,34.3,23.1,30.5,24.5L30.5,24.5
	L30.5,24.5z"/>
<g>
	<path class="st2" d="M24.5,14.8C22.3,10.1,21,5.1,20.5,0c-0.4,4-1.3,7.9-2.7,11.6l4.6,3.3L24.5,14.8L24.5,14.8L24.5,14.8z"/>
	<path class="st2" d="M17.5,27c-5.7,0.5-11.1,2.5-15.9,5.7l0,0c4.7-3.4,8.6-7.5,11.8-12.4l3.8,3.1"/>
	<path class="st2" d="M28.5,21.8c3,4.2,6.7,7.9,10.9,10.9l0,0c-4.2-2.9-9.1-4.8-14.2-5.5L24.4,24l3.1-2.5L28.5,21.8L28.5,21.8
		L28.5,21.8z"/>
</g>
<path class="st3" d="M20.5,43.6c1.2-13.1,8.1-25.1,18.9-32.7c-5.9,2.7-12.4,4.1-18.9,4.1s-13-1.4-18.9-4l0,0
	c11.6,5.6,19,17.4,19,30.3C20.6,42,20.6,42.8,20.5,43.6"/>
<polyline class="st4" points="24.5,14.8 20.5,17.4 17.8,11.6 "/>
</svg>
