<?xml version="1.0" encoding="UTF-8"?>
<svg xmlns="http://www.w3.org/2000/svg" viewBox="0 0 43.92 43.62">
  <defs>
    <style>
      .cls-1 {
        fill: #6610ff;
      }

      .cls-2 {
        fill: #35ff68;
      }
    </style>
  </defs>
  <polygon class="cls-2" points="17.77 11.62 20 13.96 22.35 14.92 17.77 11.62"/>
  <path class="cls-1" d="M22.35,14.92l-3.2,.51-4.55-.85c-.92-4.17-2.62-8.12-5.01-11.66h0c3.45,4.78,7.78,8.85,12.76,12Z"/>
  <path class="cls-1" d="M18.98,30.91c-3.61,2.77-6.77,6.07-9.39,9.79h0c2.71-4,4.53-8.55,5.33-13.31,1.02-.52,2.03-1.05,3.05-1.57l1.01,5.1h0Z"/>
  <path class="cls-1" d="M30.53,24.49l-4.53-2.41,1.11-2.67,3.48-.37c3.77,1.43,7.71,2.36,11.73,2.77-4.03,.36-8,1.26-11.79,2.69h0Z"/>
  <g>
    <path class="cls-1" d="M24.45,14.79c-2.15-4.67-3.49-9.67-3.94-14.79-.4,3.98-1.32,7.88-2.73,11.62l4.58,3.3,2.1-.13h0Z"/>
    <path class="cls-1" d="M17.47,27.05c-5.68,.51-11.14,2.46-15.87,5.66h0c4.65-3.35,8.64-7.54,11.76-12.36l3.79,3.15"/>
    <path class="cls-1" d="M28.49,21.81c2.98,4.24,6.67,7.93,10.92,10.91h0c-4.25-2.88-9.11-4.75-14.19-5.46l-.85-3.26,3.12-2.55,1,.37h0Z"/>
  </g>
  <path class="cls-1" d="M20.5,43.62c1.17-13.15,8.09-25.12,18.9-32.72-5.94,2.67-12.38,4.05-18.9,4.05S7.54,13.57,1.6,10.9h0c11.61,5.63,18.99,17.4,18.99,30.3,0,.81-.03,1.61-.09,2.42"/>
  <polyline class="cls-1" points="24.45 14.79 20.5 17.41 17.77 11.62"/>
</svg>